<svg viewBox="0 0 25 25" xmlns="http://www.w3.org/2000/svg"><style><![CDATA[:root>svg{display:none}:root>svg:target{display:block}]]></style><svg fill="none" viewBox="0 0 16 16" id="arrow" xmlns="http://www.w3.org/2000/svg"><g clip-path="url(#aa)"><path d="M.962 6.877c.065-.01.131-.016.198-.015h11.287l-.246-.114a2.289 2.289 0 0 1-.646-.458L8.389 3.125a1.185 1.185 0 0 1-.166-1.517 1.145 1.145 0 0 1 1.717-.15l5.724 5.725a1.145 1.145 0 0 1 .001 1.619L9.94 14.528a1.145 1.145 0 0 1-1.717-.115 1.185 1.185 0 0 1 .166-1.517l3.16-3.17a2.29 2.29 0 0 1 .572-.419l.344-.154H1.223A1.185 1.185 0 0 1 .015 8.19a1.145 1.145 0 0 1 .947-1.313z" fill="#2194FF"/></g><defs><clipPath id="aa"><path fill="#fff" transform="matrix(-1 0 0 1 16 0)" d="M0 0h16v16H0z"/></clipPath></defs></svg><svg fill="none" viewBox="0 0 22 23" id="cloudy" xmlns="http://www.w3.org/2000/svg"><g opacity=".4" clip-path="url(#ba)" fill="#F1F1F1"><path d="M7.938 4.144a.645.645 0 0 0 .645-.645V2.201a.645.645 0 0 0-1.29 0V3.5c0 .356.29.645.645.645zM2.09 6.505l-1.123-.65a.644.644 0 1 0-.645 1.117l1.124.649a.644.644 0 1 0 .645-1.116zm-.644 7.126-1.124.65c-.569.328-.335 1.202.323 1.202.292 0 .366-.141 1.446-.735a.644.644 0 0 0-.645-1.117zM14.43 7.62l1.124-.648a.644.644 0 1 0-.645-1.116l-1.124.649a.644.644 0 1 0 .645 1.116zm-7.795 4.639a6.122 6.122 0 0 1 5.226-4.976 5.145 5.145 0 0 0-3.923-1.815 5.163 5.163 0 0 0-5.156 5.159 5.14 5.14 0 0 0 1.389 3.517 4.933 4.933 0 0 1 2.464-1.885z"/><path d="M17.14 11.542a4.846 4.846 0 0 0-4.48-3.022 4.835 4.835 0 0 0-4.834 4.787c-1.83.2-3.223 1.771-3.223 3.613a3.639 3.639 0 0 0 3.634 3.636c10.141-.01 9.586.026 9.763-.03a4.514 4.514 0 0 0-.858-8.985z"/></g><defs><clipPath id="ba"><path fill="#fff" transform="translate(0 .054)" d="M0 0h22v22.008H0z"/></clipPath></defs></svg><svg fill="none" viewBox="0 0 20 21" id="dark" xmlns="http://www.w3.org/2000/svg"><g opacity=".4" clip-path="url(#ca)"><path d="M19.513 11.45a.703.703 0 0 0-.588.127 7.503 7.503 0 0 1-2.276 1.33 7.126 7.126 0 0 1-2.583.46 7.519 7.519 0 0 1-5.32-2.2 7.524 7.524 0 0 1-2.199-5.32c0-.87.154-1.715.41-2.482a6.87 6.87 0 0 1 1.227-2.2.653.653 0 0 0-.102-.921.703.703 0 0 0-.589-.128C5.32.704 3.427 2.009 2.072 3.748A10.094 10.094 0 0 0 0 9.888c0 2.79 1.125 5.322 2.967 7.164a10.043 10.043 0 0 0 7.16 2.968c2.353 0 4.527-.819 6.266-2.175a10.087 10.087 0 0 0 3.58-5.603.62.62 0 0 0-.46-.793z" fill="#F1F1F1"/></g><defs><clipPath id="ca"><path fill="#fff" transform="translate(0 .054)" d="M0 0h20v20.007H0z"/></clipPath></defs></svg><svg fill="none" viewBox="0 0 25 25" id="light" xmlns="http://www.w3.org/2000/svg"><g clip-path="url(#da)" fill="#2194FF"><path d="M12.5 6.238a6.27 6.27 0 0 0-6.262 6.263 6.27 6.27 0 0 0 6.262 6.262 6.27 6.27 0 0 0 6.262-6.262A6.27 6.27 0 0 0 12.5 6.238zm0-1.84a1.222 1.222 0 0 1-1.222-1.222V1.222a1.222 1.222 0 1 1 2.444 0v1.954c0 .675-.548 1.222-1.222 1.222zm0 16.204c-.675 0-1.222.547-1.222 1.221v1.955a1.222 1.222 0 1 0 2.444 0v-1.954c0-.675-.548-1.222-1.222-1.222zM18.229 6.77a1.223 1.223 0 0 1 0-1.727l1.382-1.382a1.223 1.223 0 0 1 1.728 1.728L19.956 6.77a1.222 1.222 0 0 1-1.727 0zM6.77 18.23a1.22 1.22 0 0 0-1.727 0l-1.382 1.38a1.222 1.222 0 0 0 1.728 1.728l1.382-1.383a1.22 1.22 0 0 0 0-1.726zm13.832-5.73c0-.675.547-1.222 1.221-1.222h1.955a1.222 1.222 0 1 1 0 2.443h-1.954a1.221 1.221 0 0 1-1.222-1.221zm-16.204 0c0-.675-.547-1.222-1.222-1.222H1.222a1.222 1.222 0 1 0 0 2.443h1.954c.675 0 1.222-.546 1.222-1.221zm13.831 5.73a1.223 1.223 0 0 1 1.727 0l1.383 1.382a1.22 1.22 0 1 1-1.728 1.727l-1.383-1.382a1.22 1.22 0 0 1 0-1.727zM6.77 6.77a1.222 1.222 0 0 0 0-1.727L5.39 3.661A1.222 1.222 0 0 0 3.66 5.39l1.383 1.38a1.22 1.22 0 0 0 1.728 0z"/></g><defs><clipPath id="da"><path fill="#fff" d="M0 0h25v25H0z"/></clipPath></defs></svg><svg fill="none" viewBox="0 0 22 22" id="snow" xmlns="http://www.w3.org/2000/svg"><path d="M12 9.712a.367.367 0 0 0-.315-.179h-1.37a.367.367 0 0 0-.314.178l-.66 1.1a.367.367 0 0 0 0 .377l.66 1.1a.368.368 0 0 0 .314.179h1.37a.366.366 0 0 0 .314-.178l.66-1.1a.366.366 0 0 0 0-.377l-.66-1.1z" fill="#2194FF"/><path d="m19.904 15.294-1.467-.846 1.18-.434a.763.763 0 0 0 .497-.884.735.735 0 0 0-.963-.507l-2.366.87-1.858-1.072.62-1.048a.733.733 0 0 0 0-.746l-.62-1.047 1.858-1.073 2.366.87a.733.733 0 0 0 .976-.565.758.758 0 0 0-.504-.824l-1.185-.435 1.467-.847a.76.76 0 0 0 .338-.953.734.734 0 0 0-1.037-.337l-1.503.868.214-1.237a.764.764 0 0 0-.47-.859.733.733 0 0 0-.968.567l-.43 2.483-1.87 1.08-.584-.99a.733.733 0 0 0-.63-.361h-1.232V4.744l1.907-1.589a.761.761 0 0 0 .195-.957.733.733 0 0 0-1.104-.195l-.998.831V1.14a.76.76 0 0 0-.61-.762.733.733 0 0 0-.856.723v1.734l-.968-.806a.76.76 0 0 0-.976-.019.733.733 0 0 0 .008 1.121l1.936 1.614v2.223H9.035a.733.733 0 0 0-.631.36l-.585.99-1.87-1.08-.422-2.442a.763.763 0 0 0-.78-.648.733.733 0 0 0-.673.857l.22 1.278-1.466-.847a.76.76 0 0 0-.966.146.733.733 0 0 0 .198 1.104l1.504.867-1.186.436a.759.759 0 0 0-.505.824.733.733 0 0 0 .977.565l2.365-.87L7.073 9.58l-.62 1.047a.733.733 0 0 0 0 .746l.62 1.048-1.858 1.072-2.365-.87a.735.735 0 0 0-.964.507.763.763 0 0 0 .497.884l1.179.433-1.464.843a.764.764 0 0 0-.336.968.734.734 0 0 0 1.03.325l1.504-.868-.214 1.242a.75.75 0 0 0 .715.9.734.734 0 0 0 .722-.609l.43-2.484 1.87-1.08.584.99a.733.733 0 0 0 .632.36h1.232v2.222l-1.907 1.59a.76.76 0 0 0-.194.957.733.733 0 0 0 1.104.195l.997-.832v1.695a.76.76 0 0 0 .61.762.732.732 0 0 0 .856-.723v-1.734l.998.83a.735.735 0 0 0 1.117-.217.756.756 0 0 0-.204-.93l-1.91-1.593v-2.223h1.231a.733.733 0 0 0 .631-.36l.585-.99 1.87 1.08.43 2.484a.733.733 0 0 0 .721.608.755.755 0 0 0 .716-.905l-.213-1.232 1.503.867a.734.734 0 0 0 1.031-.325.763.763 0 0 0-.335-.966zm-6.616-3.728-.66 1.1a1.105 1.105 0 0 1-.943.534h-1.37a1.104 1.104 0 0 1-.943-.534l-.66-1.1a1.096 1.096 0 0 1 0-1.132l.66-1.1a1.105 1.105 0 0 1 .943-.534h1.37a1.105 1.105 0 0 1 .943.534l.66 1.1a1.095 1.095 0 0 1 0 1.132z" fill="#2194FF"/></svg></svg>