<svg width="395" height="87" viewBox="0 0 395 87" fill="none" xmlns="http://www.w3.org/2000/svg">
<g filter="url(#filter0_i_5422_2)">
<rect width="395" height="87" rx="11" fill="#2194FF"/>
</g>
<rect x="2" y="2" width="391" height="83" rx="9" stroke="url(#paint0_linear_5422_2)" stroke-width="4"/>
<path opacity="0.31" d="M386 29.3339V17.5105C385.928 15.2613 385.05 13.1313 383.553 11.5729C382.055 10.0146 380.056 9.15076 377.981 9.16512H16.7151C15.7032 9.16381 14.7009 9.37863 13.7655 9.79731C12.8301 10.216 11.9799 10.8304 11.2635 11.6053C10.5471 12.3802 9.97849 13.3006 9.59011 14.3138C9.20173 15.327 9.00121 16.4132 9 17.5105V53.1807C9 53.1807 57.4569 35.0108 160.611 28.7642C256.502 22.9575 386 29.3339 386 29.3339Z" fill="url(#paint1_linear_5422_2)"/>
<path opacity="0.15" d="M12 78.1896H378.29C379.302 78.1909 380.304 77.976 381.24 77.5571C382.175 77.1382 383.025 76.5236 383.741 75.7484C384.457 74.9731 385.025 74.0525 385.413 73.0392C385.8 72.0258 386 70.9396 386 69.8427V52.1803C386 52.1803 370.662 68.6346 287.434 72.0392C214.669 75.0345 12 78.1896 12 78.1896Z" fill="white"/>
<defs>
<filter id="filter0_i_5422_2" x="0" y="0" width="395" height="91" filterUnits="userSpaceOnUse" color-interpolation-filters="sRGB">
<feFlood flood-opacity="0" result="BackgroundImageFix"/>
<feBlend mode="normal" in="SourceGraphic" in2="BackgroundImageFix" result="shape"/>
<feColorMatrix in="SourceAlpha" type="matrix" values="0 0 0 0 0 0 0 0 0 0 0 0 0 0 0 0 0 0 127 0" result="hardAlpha"/>
<feOffset dy="4"/>
<feGaussianBlur stdDeviation="6"/>
<feComposite in2="hardAlpha" operator="arithmetic" k2="-1" k3="1"/>
<feColorMatrix type="matrix" values="0 0 0 0 0 0 0 0 0 0 0 0 0 0 0 0 0 0 0.45 0"/>
<feBlend mode="normal" in2="shape" result="effect1_innerShadow_5422_2"/>
</filter>
<linearGradient id="paint0_linear_5422_2" x1="-3.72393e-07" y1="32" x2="395" y2="32" gradientUnits="userSpaceOnUse">
<stop stop-color="#2194FF"/>
<stop offset="0.522421" stop-color="#81C0FB"/>
<stop offset="1" stop-color="#108CFF"/>
</linearGradient>
<linearGradient id="paint1_linear_5422_2" x1="197.5" y1="-0.269633" x2="197.5" y2="63.5949" gradientUnits="userSpaceOnUse">
<stop stop-color="#81C0FB"/>
<stop offset="1" stop-color="white"/>
</linearGradient>
</defs>
</svg>
