<svg width="395" height="87" fill="none" xmlns="http://www.w3.org/2000/svg"><g filter="url(#a)"><rect width="395" height="87" rx="11" fill="#2194FF"/></g><rect x="2" y="2" width="391" height="83" rx="9" stroke="url(#b)" stroke-width="4"/><path opacity=".31" d="M386 29.334V17.51c-.072-2.25-.95-4.38-2.447-5.938-1.498-1.558-3.497-2.422-5.572-2.408H16.715a7.189 7.189 0 0 0-2.95.632 7.695 7.695 0 0 0-2.502 1.808 8.432 8.432 0 0 0-1.673 2.709A8.969 8.969 0 0 0 9 17.51v35.67s48.457-18.17 151.611-24.417c95.891-5.806 225.389.57 225.389.57Z" fill="url(#c)"/><path opacity=".15" d="M12 78.19h366.29a7.19 7.19 0 0 0 2.95-.633 7.692 7.692 0 0 0 2.501-1.809 8.435 8.435 0 0 0 1.672-2.709 8.97 8.97 0 0 0 .587-3.196V52.18s-15.338 16.455-98.566 19.86C214.669 75.033 12 78.19 12 78.19Z" fill="#fff"/><defs><linearGradient id="b" x1="0" y1="32" x2="395" y2="32" gradientUnits="userSpaceOnUse"><stop stop-color="#2194FF"/><stop offset=".522" stop-color="#81C0FB"/><stop offset="1" stop-color="#108CFF"/></linearGradient><linearGradient id="c" x1="197.5" y1="-.27" x2="197.5" y2="63.595" gradientUnits="userSpaceOnUse"><stop stop-color="#81C0FB"/><stop offset="1" stop-color="#fff"/></linearGradient><filter id="a" x="0" y="0" width="395" height="91" filterUnits="userSpaceOnUse" color-interpolation-filters="sRGB"><feFlood flood-opacity="0" result="BackgroundImageFix"/><feBlend in="SourceGraphic" in2="BackgroundImageFix" result="shape"/><feColorMatrix in="SourceAlpha" values="0 0 0 0 0 0 0 0 0 0 0 0 0 0 0 0 0 0 127 0" result="hardAlpha"/><feOffset dy="4"/><feGaussianBlur stdDeviation="6"/><feComposite in2="hardAlpha" operator="arithmetic" k2="-1" k3="1"/><feColorMatrix values="0 0 0 0 0 0 0 0 0 0 0 0 0 0 0 0 0 0 0.45 0"/><feBlend in2="shape" result="effect1_innerShadow_5422_2"/></filter></defs></svg>