<svg width="269" height="98" fill="none" xmlns="http://www.w3.org/2000/svg"><path d="M5.706 61.541v-2.9l5.666-5.841h8.56v8.741H5.706Zm0 14.459v-8.659h14.226V76h5.665V47H8.52L0 55.741V76h5.706Zm38.428 0V52.8h9.904V47H28.441v5.8h9.986V76h5.707Zm18.055 0V58.6l5.666-5.8h8.56V76h5.665V47H65l-8.518 8.7V76h5.706Zm29.256-14.459v-2.9l5.666-5.841h8.559v8.741H91.445Zm0 14.459v-8.659h14.225V76h5.666V47H94.258l-8.52 8.741V76h5.707Zm29.664 0V64.441h14.225V76H141V47h-5.666v11.641h-14.225V47h-5.706v29h5.706Zm74.563 0V52.8h18.395V47H190v29h5.672Zm24.879-14.459v-2.9l5.632-5.841h8.508v8.741h-14.14Zm0 14.459v-8.659h14.14V76h5.632V47h-16.977l-8.468 8.741V76h5.673Zm45.653 0L269 73.141v-8.7l-2.796-2.9 2.796-2.9v-8.7L266.204 47h-19.853l-2.796 2.941V55.7h5.673v-2.9h14.14v5.841h-8.508v5.8h8.508V70.2h-14.14v-2.859h-5.673v5.8L246.351 76h19.853ZM8.55 86.674c0 .689-.23 1.258-.687 1.707-.458.45-1.077.735-1.86.857v.044c.92.098 1.624.369 2.114.813.494.445.741 1.023.741 1.737 0 .986-.375 1.765-1.125 2.337-.746.57-1.78.857-3.102.857-1.474 0-2.656-.193-3.549-.58v-1.904c.43.22.934.393 1.51.52a7.936 7.936 0 0 0 1.627.183c1.688 0 2.532-.525 2.532-1.575 0-.473-.272-.837-.816-1.091-.54-.254-1.341-.381-2.403-.381h-.94v-1.773h.844c1.062 0 1.835-.108 2.32-.322.485-.215.728-.572.728-1.07 0-.366-.154-.657-.46-.872-.302-.22-.757-.33-1.366-.33-.943 0-1.853.291-2.731.872L1 85.187a6.035 6.035 0 0 1 1.819-.887 7.472 7.472 0 0 1 2.134-.285c1.094 0 1.965.244 2.615.732.654.489.981 1.13.981 1.927Zm8.324 8.206-.727-2.55h-3.658l-.728 2.55H9.47l3.541-10.755h2.601l3.555 10.754h-2.292Zm-1.235-4.455a2277.07 2277.07 0 0 1-1.14-3.92 12.951 12.951 0 0 1-.178-.718c-.15.626-.583 2.171-1.297 4.638h2.615Zm12.738 4.455h-2.121v-8.821h-3.692v8.82h-2.128V84.17h7.94v10.71Zm4.66-5.671h.7c.654 0 1.143-.137 1.468-.41.325-.279.488-.682.488-1.21 0-.532-.138-.925-.412-1.179-.27-.254-.696-.38-1.277-.38h-.967v3.179Zm4.804-1.7c0 1.153-.339 2.034-1.016 2.645-.673.61-1.631.916-2.876.916h-.912v3.81h-2.128V84.167h3.205c1.217 0 2.141.281 2.773.843.636.557.954 1.39.954 2.498Zm8.036 7.371-.727-2.55h-3.658l-.728 2.55h-2.292l3.541-10.755h2.602l3.555 10.754h-2.293Zm-1.235-4.455c-.673-2.31-1.052-3.617-1.14-3.92a13.025 13.025 0 0 1-.178-.718c-.15.626-.583 2.171-1.297 4.638h2.615Zm4.798-6.257h3.122c1.423 0 2.455.218 3.095.652.645.43.968 1.117.968 2.06 0 .639-.142 1.164-.426 1.574-.279.41-.652.657-1.118.74v.073c.636.152 1.093.435 1.372.85.284.415.426.967.426 1.656 0 .977-.332 1.739-.995 2.286-.66.547-1.556.82-2.69.82h-3.755V84.17Zm2.127 4.242h1.235c.577 0 .993-.095 1.25-.285.26-.19.39-.506.39-.945 0-.41-.142-.704-.425-.88-.28-.18-.723-.27-1.332-.27h-1.118v2.38Zm0 1.803v2.79h1.386c.586 0 1.018-.119 1.297-.358.28-.24.419-.606.419-1.1 0-.888-.595-1.332-1.784-1.332h-1.318Zm15.497 4.667h-2.416l-3.638-5.43v5.43h-2.127V84.167h2.127v5.187l3.596-5.187h2.265l-3.658 5.143 3.85 5.568Zm7.405 0-.728-2.55h-3.658l-.727 2.55h-2.292l3.54-10.755h2.602l3.555 10.754h-2.292Zm-1.236-4.455a2277.07 2277.07 0 0 1-1.139-3.92 12.951 12.951 0 0 1-.178-.718c-.151.626-.584 2.171-1.297 4.638h2.614Zm14.79-6.257v1.876H83.81v8.835h-2.127V84.17h6.341Zm7.694 10.712-.728-2.55h-3.658l-.727 2.55H88.31l3.542-10.755h2.6l3.556 10.754h-2.292Zm-1.236-4.455-1.139-3.92a13.025 13.025 0 0 1-.178-.718c-.151.626-.584 2.171-1.297 4.638h2.614Zm11.729-3.751c0 .689-.229 1.258-.686 1.707-.458.45-1.078.735-1.86.857v.044c.92.098 1.624.369 2.114.813.494.445.741 1.023.741 1.737 0 .986-.375 1.765-1.126 2.337-.745.57-1.779.857-3.102.857-1.473 0-2.656-.193-3.548-.58v-1.904c.43.22.934.393 1.51.52a7.935 7.935 0 0 0 1.627.183c1.688 0 2.532-.525 2.532-1.575 0-.473-.272-.837-.817-1.091-.54-.254-1.34-.381-2.402-.381h-.94v-1.773h.844c1.062 0 1.835-.108 2.32-.322.485-.215.727-.572.727-1.07 0-.366-.153-.657-.459-.872-.302-.22-.758-.33-1.366-.33-.943 0-1.853.291-2.732.872l-.926-1.516a6.032 6.032 0 0 1 1.819-.887 7.468 7.468 0 0 1 2.134-.285c1.093 0 1.965.244 2.615.732.654.489.981 1.13.981 1.927Zm8.524-2.506v1.876h-4.214v8.835h-2.127V84.17h6.341Zm10.658 5.342c0 1.772-.411 3.135-1.235 4.087-.824.953-2.004 1.429-3.541 1.429-1.538 0-2.718-.477-3.542-1.429-.823-.952-1.235-2.32-1.235-4.102 0-1.783.412-3.143 1.235-4.081.828-.943 2.014-1.414 3.555-1.414 1.542 0 2.72.474 3.535 1.421.819.948 1.228 2.31 1.228 4.088Zm-7.323 0c0 1.196.213 2.097.639 2.703.425.605 1.061.908 1.908.908 1.697 0 2.546-1.204 2.546-3.612 0-2.412-.844-3.619-2.533-3.619-.846 0-1.484.305-1.914.916-.43.606-.646 1.507-.646 2.703Zm17.343 5.37h-2.12v-8.821h-2.457l-.11.981c-.284 2.496-.535 4.25-.755 5.26-.215 1.007-.531 1.715-.947 2.125-.416.41-.979.61-1.688.6-.385 0-.723-.053-1.016-.16v-1.861c.265.097.515.146.748.146.242 0 .435-.117.576-.352.142-.239.275-.678.398-1.318.129-.645.296-1.697.501-3.158.211-1.465.389-2.85.536-4.154h6.334V94.88Zm9.602-3.349c0 2.232-1.382 3.348-4.146 3.348h-2.923V84.17h2.127v4.11h.838c1.308 0 2.319.283 3.033.85.714.566 1.071 1.367 1.071 2.402Zm-4.942 1.487h.714c.718 0 1.245-.122 1.579-.366.334-.25.501-.623.501-1.12 0-.494-.17-.848-.508-1.063-.339-.22-.92-.33-1.743-.33h-.543v2.88Zm5.655-.029h.776a26.384 26.384 0 0 0 1.572-4.242 31.05 31.05 0 0 0 .858-4.579h5.847v8.821h1.338V98h-2.052v-3.12h-6.286V98h-2.053v-5.011Zm4.894-6.93a26.403 26.403 0 0 1-.735 3.553 25.933 25.933 0 0 1-1.146 3.377h3.919v-6.93h-2.038Zm12.827 8.821h-5.779V84.167h5.779v1.861h-3.651v2.352h3.397v1.86h-3.397v2.763h3.651v1.875Zm4.227-5.671h.7c.655 0 1.144-.137 1.469-.41.325-.279.487-.682.487-1.21 0-.532-.137-.925-.411-1.179-.27-.254-.696-.38-1.277-.38h-.968v3.179Zm4.805-1.7c0 1.153-.339 2.034-1.016 2.645-.673.61-1.631.916-2.876.916h-.913v3.81h-2.127V84.167h3.205c1.217 0 2.141.281 2.773.843.636.557.954 1.39.954 2.498Zm11.001 2.001c0 1.772-.412 3.135-1.235 4.087-.824.953-2.004 1.429-3.542 1.429-1.537 0-2.717-.477-3.541-1.429-.824-.952-1.235-2.32-1.235-4.102 0-1.783.411-3.143 1.235-4.081.828-.943 2.013-1.414 3.555-1.414 1.542 0 2.72.474 3.535 1.421.818.948 1.228 2.31 1.228 4.088Zm-7.323 0c0 1.196.213 2.097.638 2.703.426.605 1.062.908 1.908.908 1.698 0 2.547-1.204 2.547-3.612 0-2.412-.845-3.619-2.533-3.619-.846 0-1.485.305-1.915.916-.43.606-.645 1.507-.645 2.703Zm9.402-5.342h3.123c1.423 0 2.455.218 3.095.652.646.43.968 1.117.968 2.06 0 .639-.142 1.164-.425 1.574-.28.41-.652.657-1.119.74v.073c.636.152 1.093.435 1.372.85.284.415.426.967.426 1.656 0 .977-.332 1.739-.995 2.286-.659.547-1.556.82-2.69.82h-3.755V84.17Zm2.128 4.242h1.235c.577 0 .993-.095 1.249-.285.261-.19.392-.506.392-.945 0-.41-.142-.704-.426-.88-.279-.18-.723-.27-1.331-.27h-1.119v2.38Zm0 1.803v2.79h1.386c.586 0 1.018-.119 1.297-.358.28-.24.419-.606.419-1.1 0-.888-.595-1.332-1.784-1.332h-1.318Z" fill="#F1F1F1"/><path d="M169.457 76V44.8H183V37h-35v7.8h13.654V76h7.803Z" fill="#2194FF"/><path fill-rule="evenodd" clip-rule="evenodd" d="M168.75 6.423c-1.137.937-1.439 2.627-.908 5.07-.125-1.428.48-2.568 1.815-3.42.888-.801 1.191-2.333.909-4.598-.237 1.353-.843 2.338-1.816 2.955v-.007Zm-6.766 22.041a6.542 6.542 0 0 1-1.882-4.388 6.512 6.512 0 0 1 1.628-4.483c1.081-1.156 1.266-2.422.553-3.797 1.064.569 1.582 1.974 1.553 4.217 1.742-3.475 1.672-6.38-.211-8.715.732.187 1.45.422 2.149.704-.227-1.273-.694-2.355-1.401-3.245-1.404-2.65-1.318-5.569.256-8.757-.672 2.066-.332 4.027 1.021 5.883 1.317 1.883 1.628 4.044.933 6.482 4.205 2.066 5.466 5.76 3.781 11.082 1.347-.89 1.842-2.463 1.484-4.722 1.812 3.298 1.958 5.992.437 8.08a7.5 7.5 0 0 0 1.821-4.737c.053-2.27-.411-4.076-1.392-5.418-1.364-1.6-2.177-2.941-2.44-4.022-.596-3.965.35-6.801 2.838-8.51-2.213 2.49-2.075 5.815.415 9.973-.409-2.334.183-3.765 1.776-4.292-1.604.634-1.449 3.78.465 9.437a9.395 9.395 0 0 1-1.061 6.826c-1.211 2.073-3.169 3.645-5.503 4.415s-4.88.687-7.154-.235c-2.273-.923-4.116-2.62-5.177-4.767-1.488-3.406-1.073-7.51 1.245-12.313 1.54-2.522 2.334-5.486 2.383-8.893-.266-1.65-.827-2.974-1.683-3.973 2.669 2.24 4.096 4.69 4.28 7.352.19 2.415-.443 4.558-1.901 6.43-1.98 2.654-2.945 5.719-2.894 9.194a7.526 7.526 0 0 0 1.264 2.974 7.838 7.838 0 0 0 2.417 2.212v.007Zm6.472.8c1.929-1.605 2.053-3.626.372-6.061-1.375-1.902-1.877-3.641-1.503-5.217-2.446 1.271-2.384 5.134-1.714 8.216-.708-.523-1.985-3.094-1.937-4.338-1.944 2.973-1.791 5.467.46 7.481a8.281 8.281 0 0 0 4.318-.08h.004Z" fill="#2194FF"/></svg>